<?xml version="1.0" encoding="UTF-8" standalone="no"?>
<svg
   xmlns:dc="http://purl.org/dc/elements/1.1/"
   xmlns:cc="http://creativecommons.org/ns#"
   xmlns:rdf="http://www.w3.org/1999/02/22-rdf-syntax-ns#"
   xmlns:svg="http://www.w3.org/2000/svg"
   xmlns="http://www.w3.org/2000/svg"
   xmlns:sodipodi="http://sodipodi.sourceforge.net/DTD/sodipodi-0.dtd"
   xmlns:inkscape="http://www.inkscape.org/namespaces/inkscape"
   inkscape:version="1.0 (4035a4f, 2020-05-01)"
   sodipodi:docname="bar-logo.svg"
   id="svg1307"
   version="1.1"
   viewBox="0 0 221.59686 83.335754"
   height="83.335754mm"
   width="221.59686mm">
  <sodipodi:namedview
     inkscape:current-layer="svg1307"
     inkscape:window-maximized="0"
     inkscape:window-y="25"
     inkscape:window-x="0"
     inkscape:cy="157.48489"
     inkscape:cx="271.89354"
     inkscape:zoom="1.3106634"
     inkscape:pagecheckerboard="true"
     showgrid="false"
     id="namedview2456"
     inkscape:window-height="957"
     inkscape:window-width="1902"
     inkscape:pageshadow="2"
     inkscape:pageopacity="0"
     guidetolerance="10"
     gridtolerance="10"
     objecttolerance="10"
     borderopacity="1"
     bordercolor="#666666"
     pagecolor="#ffffff" />
  <defs
     id="defs1301" />
  <metadata
     id="metadata1304">
    <rdf:RDF>
      <cc:Work
         rdf:about="">
        <dc:format>image/svg+xml</dc:format>
        <dc:type
           rdf:resource="http://purl.org/dc/dcmitype/StillImage" />
        <dc:title></dc:title>
      </cc:Work>
    </rdf:RDF>
  </metadata>
  <g
     style="fill:#ff9955"
     id="layer1"
     transform="translate(-60.88365,3.501675)">
    <path
       style="fill:#ff9955;stroke-width:0.264583"
       d="m 276.2628,79.735384 c -1.37117,-0.25971 -2.38125,-0.67689 -2.38125,-0.98349 0,-0.17461 0.18932,-0.58777 0.42072,-0.91813 0.29649,-0.4233 0.51452,-0.5228 0.73842,-0.33698 0.17474,0.14503 0.88667,0.39119 1.58206,0.54703 2.55518,0.57263 4.13797,-0.48486 4.13797,-2.76463 v -0.9471 l -0.76621,0.56648 c -1.61827,1.19644 -4.89145,0.80987 -6.09469,-0.71981 -0.70869,-0.90096 -1.16611,-3.3066 -0.95302,-5.01212 0.18761,-1.50154 0.90618,-2.78942 2.01402,-3.60968 1.06252,-0.78671 4.00857,-1.12802 5.93219,-0.68727 l 1.5875,0.36373 v 5.99364 c 0,5.63866 -0.0324,6.03784 -0.54623,6.74006 -0.9843,1.34501 -3.60016,2.16059 -5.67148,1.76827 z m 3.26525,-6.19541 c 0.94549,-0.74372 1.28112,-2.09061 1.18322,-4.7483 l -0.0828,-2.24896 -1.28244,-0.24758 c -1.96426,-0.3792 -3.30907,0.18022 -4.09339,1.70279 -0.50451,0.97939 -0.58549,1.44353 -0.45642,2.61618 0.1762,1.60087 0.75811,2.76866 1.5778,3.1664 0.94073,0.45648 2.41046,0.3444 3.15407,-0.24053 z m -217.51576,1.93619 -1.12864,-0.10074 0.0703,-7.32677 0.0703,-7.32677 2.91042,-0.0761 c 4.31028,-0.1127 5.68854,0.70705 5.68854,3.3834 0,1.41958 -0.59794,2.53059 -1.65813,3.08088 -0.5741,0.29799 -0.7249,0.47984 -0.45854,0.55299 1.67398,0.4597 2.64583,1.77033 2.64583,3.56813 0,3.11159 -3.04542,4.69975 -8.14009,4.24499 z m 4.90554,-2.18769 c 1.10874,-0.676 1.4932,-1.6398 1.11329,-2.79092 -0.37699,-1.1423 -1.5906,-1.70588 -3.67341,-1.70588 h -1.61366 v 2.51354 2.51354 l 1.65364,-0.001 c 1.18572,-7.9e-4 1.89884,-0.15048 2.52014,-0.52929 z m -0.73712,-6.74425 c 1.70071,-0.87947 2.0398,-2.37097 0.81702,-3.59374 -0.69801,-0.69802 -0.943,-0.7734 -2.51354,-0.7734 h -1.74014 v 2.38125 2.38125 h 1.33605 c 0.73483,0 1.68011,-0.17791 2.10061,-0.39536 z m 9.13105,8.93722 c -0.83799,-0.20272 -1.69779,-1.14442 -1.9833,-2.17221 -0.14449,-0.52013 -0.26338,-2.28514 -0.26418,-3.92225 l -10e-4,-2.97656 h -0.66146 c -0.55857,0 -0.66146,-0.12348 -0.66146,-0.79375 v -0.79375 h 1.5875 1.5875 l 0.004,3.77031 c 0.004,4.1107 0.21082,4.92338 1.35363,5.32528 0.97303,0.3422 2.04231,-0.001 2.9161,-0.93664 0.73215,-0.78376 0.75346,-0.88761 0.75346,-3.67061 0,-2.76867 -0.0198,-2.86685 -0.59531,-2.94859 -0.42625,-0.0605 -0.61909,-0.29118 -0.67903,-0.81215 -0.0832,-0.72299 -0.0735,-0.7276 1.52135,-0.7276 h 1.60508 l 0.004,4.16718 c 0.002,2.29196 0.0915,4.30225 0.19843,4.46731 0.10692,0.16507 0.43252,0.34468 0.72356,0.39914 0.34833,0.0652 0.55777,0.34689 0.61288,0.82436 0.0824,0.71389 0.0605,0.72534 -1.38906,0.72534 h -1.47278 v -0.84325 -0.84325 l -0.7276,0.69412 c -1.17534,1.12126 -2.6958,1.48752 -4.43177,1.06757 z m 76.46458,-0.16759 c -0.43656,-0.20311 -1.09141,-0.69136 -1.45521,-1.08499 -0.6261,-0.67743 -0.66609,-0.90554 -0.7481,-4.26707 l -0.0867,-3.55137 h -1.30242 c -1.27074,0 -1.30242,-0.0193 -1.30242,-0.79375 0,-0.77611 0.0294,-0.79375 1.32292,-0.79375 h 1.32292 v -1.03003 c 0,-0.69517 0.13605,-1.08223 0.41851,-1.19062 0.96079,-0.36869 1.16899,-0.18524 1.16899,1.03002 v 1.19063 h 2.77812 2.77813 v 0.79375 0.79375 h -2.80668 -2.80668 l 0.10403,2.97656 c 0.0683,1.95558 0.23208,3.1743 0.47732,3.55305 0.79194,1.22304 2.54678,1.47707 4.23923,0.61364 1.02461,-0.52272 1.04181,-0.52294 1.31237,-0.0174 0.42309,0.79055 0.34782,0.94293 -0.71803,1.45345 -1.32368,0.63403 -3.68064,0.79669 -4.69635,0.32412 z m 11.42572,-0.01 c -1.32731,-0.49549 -2.00183,-1.12264 -2.59373,-2.41161 -0.98766,-2.15083 -0.45975,-5.77365 1.03501,-7.10276 1.3905,-1.23641 4.19643,-1.56187 6.08308,-0.70557 1.36174,0.61804 2.15913,2.10317 2.16807,4.03802 l 0.006,1.25676 h -4.00337 -4.00336 l 0.15643,0.96398 c 0.32424,1.99807 2.29197,3.06744 4.59017,2.49455 0.70167,-0.17491 1.55354,-0.49808 1.89305,-0.71815 0.56202,-0.36431 0.65007,-0.35684 0.98323,0.0834 0.50862,0.67206 0.37322,0.92332 -0.87082,1.61595 -1.39057,0.77422 -4.03763,1.01027 -5.44357,0.48544 z m 4.97558,-7.10798 c -0.0939,-0.32742 -0.52056,-0.92273 -0.94804,-1.32291 -1.37081,-1.28328 -3.99947,-0.82339 -4.86544,0.85123 -0.22075,0.42687 -0.40136,0.84158 -0.40136,0.92157 0,0.08 1.43677,0.14543 3.19283,0.14543 3.18531,0 3.19243,-0.001 3.02201,-0.59532 z m 45.03067,7.10797 c -1.32731,-0.49549 -2.00183,-1.12264 -2.59373,-2.41161 -0.98766,-2.15083 -0.45975,-5.77365 1.03501,-7.10276 1.3905,-1.23641 4.19644,-1.56187 6.08309,-0.70557 1.36173,0.61804 2.15912,2.10317 2.16806,4.03802 l 0.006,1.25677 h -4.00336 -4.00337 l 0.15643,0.96398 c 0.32424,1.99807 2.29197,3.06744 4.59017,2.49455 0.70167,-0.17491 1.55354,-0.49808 1.89306,-0.71815 0.56202,-0.36431 0.65006,-0.35684 0.98323,0.0834 0.50861,0.67206 0.37321,0.92332 -0.87083,1.61595 -1.39057,0.77422 -4.03762,1.01027 -5.44357,0.48544 z m 4.97559,-7.10797 c -0.094,-0.32742 -0.52057,-0.92273 -0.94805,-1.32291 -1.3708,-1.28328 -3.99946,-0.82339 -4.86544,0.85123 -0.22075,0.42687 -0.40136,0.84158 -0.40136,0.92157 0,0.08 1.43678,0.14543 3.19283,0.14543 3.18531,0 3.19243,-0.001 3.02202,-0.59532 z m 6.9584,7.26669 c -0.39456,-0.0495 -1.07917,-0.42793 -1.52136,-0.84099 -0.68298,-0.638 -0.80397,-0.94519 -0.80397,-2.04121 0,-2.3936 1.32397,-3.35863 4.56406,-3.32669 l 2.05052,0.0202 v -0.98454 c 0,-0.54149 -0.153,-1.19378 -0.34001,-1.44952 -0.48721,-0.6663 -2.2129,-0.82099 -3.62874,-0.32529 -1.51767,0.53136 -1.44992,0.54008 -1.80164,-0.23186 -0.38269,-0.8399 0.0104,-1.07191 2.49732,-1.47406 2.19163,-0.35439 3.58526,0.009 4.43843,1.15662 0.48569,0.65346 0.56518,1.18653 0.64108,4.29948 l 0.0866,3.55355 h 0.64096 c 0.53578,0 0.64095,0.13024 0.64095,0.79375 0,0.78573 -0.0147,0.79375 -1.4552,0.79375 -1.37803,0 -1.45521,-0.0353 -1.45521,-0.66521 v -0.66522 l -0.99219,0.64379 c -1.00108,0.64956 -2.24303,0.90879 -3.56165,0.74343 z m 2.54338,-1.74863 c 1.07275,-0.44822 1.74587,-1.34879 1.74587,-2.33578 0,-0.72115 -0.0294,-0.73488 -1.57505,-0.73488 -2.51485,0 -3.46605,0.70601 -3.07113,2.27951 0.26658,1.06214 1.46763,1.38976 2.90031,0.79115 z m 10.34483,1.76648 c -1.17269,-0.28489 -2.22774,-1.39516 -2.63775,-2.77579 -1.17302,-3.95 0.31581,-7.18044 3.62601,-7.86764 0.84383,-0.17517 2.03991,-0.23438 2.70879,-0.13407 l 1.19774,0.17961 v -1.35296 -1.35296 h -0.92604 c -0.85254,0 -0.92604,-0.063 -0.92604,-0.79375 v -0.79375 h 1.85208 1.85209 v 6.59701 6.59701 l 0.7276,0.0837 c 0.57149,0.0658 0.74557,0.23983 0.81133,0.81133 0.0824,0.71637 0.0611,0.7276 -1.38403,0.7276 -1.3539,0 -1.48091,-0.0525 -1.63765,-0.67697 l -0.16991,-0.67698 -0.58651,0.551 c -0.95346,0.89574 -2.88507,1.27179 -4.50771,0.87759 z m 3.54096,-1.82901 c 0.97536,-0.68317 1.35383,-1.95831 1.35383,-4.56125 v -2.36386 l -0.83323,-0.29047 c -3.33859,-1.16384 -5.74902,1.20118 -4.98333,4.88945 0.21506,1.03596 0.50788,1.59594 1.09118,2.08675 0.9391,0.79021 2.43363,0.89632 3.37155,0.23938 z m -156.60242,0.96062 c 0,-0.78573 0.0147,-0.79375 1.45521,-0.79375 h 1.45521 v -3.70417 -3.70416 h -1.45521 c -1.44498,0 -1.45521,-0.006 -1.45521,-0.80488 v -0.80488 l 2.03936,0.0773 c 1.87797,0.0712 2.05072,0.12528 2.18281,0.68383 l 0.14345,0.60654 0.87531,-0.64614 c 1.01441,-0.74882 2.40102,-1.07078 3.53704,-0.82127 0.94314,0.20715 1.54078,1.38008 1.54078,3.02395 0,1.00898 -0.043,1.06683 -0.79375,1.06683 -0.69879,0 -0.79375,-0.0915 -0.79375,-0.76444 0,-0.42044 -0.21353,-1.02814 -0.47452,-1.35044 -0.42659,-0.52682 -0.57734,-0.55762 -1.49258,-0.30491 -0.55994,0.15461 -1.29891,0.54494 -1.64215,0.8674 -0.58448,0.54908 -0.62408,0.77648 -0.62408,3.58288 v 2.99659 h 1.98437 1.98438 v 0.79375 0.79375 h -4.23334 -4.23333 z m 13.22917,-3.70369 v -4.49791 h -0.79375 c -0.70556,0 -0.79375,-0.0882 -0.79375,-0.79375 0,-0.7854 0.0153,-0.79375 1.45016,-0.79375 1.31198,0 1.46543,0.0608 1.6103,0.63801 l 0.16013,0.63801 0.92986,-0.63101 c 1.12627,-0.76431 2.39339,-1.03139 3.71603,-0.78327 2.47977,0.46521 2.80042,1.18162 2.93359,6.5544 l 0.10329,4.16719 h -0.95377 -0.95376 v -3.44808 c 0,-3.93947 -0.31822,-5.11439 -1.50856,-5.56981 -1.03374,-0.39551 -2.51224,0.09 -3.36673,1.10547 -0.65755,0.78144 -0.68096,0.93139 -0.68096,4.36085 v 3.55157 h -0.92604 -0.92604 z m 23.34931,4.16719 c 0.0674,-0.1819 1.1798,-3.51565 2.47196,-7.40833 l 2.34937,-7.07761 h 1.1062 1.1062 l 2.40327,7.20998 c 1.3218,3.96549 2.40327,7.30643 2.40327,7.42431 0,0.11788 -0.43728,0.17737 -0.97174,0.13221 -0.95455,-0.0807 -0.98306,-0.11619 -1.61244,-2.00905 l -0.64072,-1.92693 -2.7978,0.0748 -2.79779,0.0748 -0.63889,1.91823 c -0.63196,1.89745 -0.64899,1.91823 -1.57118,1.91823 -0.63484,0 -0.89319,-0.10552 -0.80971,-0.33073 z m 7.89671,-6.08542 c -0.12447,-0.32742 -0.61444,-1.84546 -1.08883,-3.37343 l -0.86254,-2.77813 -0.86371,2.56028 c -0.47504,1.40815 -0.94408,2.9262 -1.04231,3.37344 l -0.1786,0.81316 h 2.13114 c 2.10074,0 2.12792,-0.008 1.90485,-0.59532 z m 6.06023,5.6224 c 0,-0.76435 0.0441,-0.79375 1.19062,-0.79375 h 1.19063 v -3.70417 -3.70416 h -1.19063 c -1.14653,0 -1.19062,-0.0294 -1.19062,-0.79375 0,-0.76089 0.0479,-0.79375 1.15653,-0.79375 h 1.15654 l 0.1693,-1.27621 c 0.24146,-1.82023 1.25237,-2.73995 3.18805,-2.90047 0.79684,-0.0661 1.85986,-0.043 2.36226,0.0512 0.84201,0.15796 0.89838,0.22771 0.72061,0.89164 -0.18593,0.69439 -0.24922,0.71729 -1.7611,0.63721 -1.88678,-0.0999 -2.44503,0.23605 -2.66723,1.60529 l -0.16087,0.99132 h 2.15129 2.15128 v 0.79375 0.79375 h -2.11666 -2.11667 v 3.70416 3.70417 h 2.11667 2.11666 v 0.79375 0.79375 h -4.23333 -4.23333 z m 37.04167,0 c 0,-0.78573 0.0147,-0.79375 1.4552,-0.79375 h 1.45521 v -3.70417 -3.70416 h -1.45521 c -1.44498,0 -1.4552,-0.006 -1.4552,-0.80488 v -0.80488 l 2.03936,0.0773 c 1.87797,0.0712 2.05071,0.12528 2.18281,0.68383 l 0.14345,0.60654 0.87531,-0.64614 c 1.01441,-0.74882 2.40102,-1.07078 3.53703,-0.82127 0.94314,0.20715 1.54079,1.38008 1.54079,3.02395 0,1.00898 -0.043,1.06683 -0.79375,1.06683 -0.6988,0 -0.79375,-0.0915 -0.79375,-0.76444 0,-0.42044 -0.21354,-1.02814 -0.47452,-1.35044 -0.42659,-0.52682 -0.57735,-0.55762 -1.49259,-0.30491 -0.55993,0.15461 -1.2989,0.54494 -1.64215,0.8674 -0.58447,0.54908 -0.62408,0.77648 -0.62408,3.58288 v 2.99659 h 1.98438 1.98437 v 0.79375 0.79375 h -4.23333 -4.23333 z m 25.72654,-6.54844 0.0703,-7.34218 2.64579,-0.0765 c 2.04687,-0.0592 2.87141,0.0252 3.64253,0.37295 1.31033,0.59087 2.04606,1.80841 2.04606,3.38596 0,1.45836 -0.47249,2.48254 -1.57215,3.40785 l -0.79741,0.67097 1.84624,3.30638 c 1.01543,1.81852 1.84623,3.38308 1.84623,3.4768 0,0.0937 -0.48974,0.1338 -1.08831,0.0891 l -1.08832,-0.0814 -1.62366,-3.10319 -1.62366,-3.1032 -1.25677,-0.006 -1.25678,-0.006 v 3.175 3.175 h -0.93022 -0.93023 z m 5.42244,-1.29555 c 1.36208,-1.01694 1.43075,-2.77002 0.15481,-3.95252 -0.56564,-0.52422 -0.96743,-0.63891 -2.23826,-0.63891 h -1.54887 v 2.6786 2.6786 l 1.46618,-0.12159 c 0.88783,-0.0736 1.74229,-0.32773 2.16614,-0.64418 z m 44.78643,7.84399 v -0.79375 h 1.85209 1.85208 v -3.70417 -3.70416 h -1.85208 -1.85209 v -0.79375 -0.79375 h 2.77813 2.77812 v 4.49791 4.49792 h 1.7198 1.71979 v 0.79375 0.79375 h -4.49792 -4.49792 z m 12.17084,-3.70417 v -4.49791 h -0.79375 c -0.70556,0 -0.79375,-0.0882 -0.79375,-0.79375 0,-0.7854 0.0153,-0.79375 1.45017,-0.79375 1.31197,0 1.46542,0.0608 1.61029,0.63801 l 0.16014,0.63801 0.92985,-0.63101 c 1.12627,-0.76431 2.39339,-1.03139 3.71603,-0.78327 2.47977,0.46521 2.80042,1.18162 2.93359,6.5544 l 0.10329,4.16719 h -0.95376 -0.95377 v -3.44808 c 0,-3.93947 -0.31822,-5.11439 -1.50856,-5.56981 -1.03374,-0.39551 -2.51224,0.09 -3.36673,1.10547 -0.65754,0.78144 -0.68096,0.93139 -0.68096,4.36085 v 3.55157 h -0.92604 -0.92604 z m -8.67834,-7.99041 c -0.17462,-0.17463 -0.3175,-0.62707 -0.3175,-1.00542 0,-0.88763 0.45069,-1.32292 1.36974,-1.32292 0.49175,0 0.87806,0.21875 1.16814,0.66146 0.40148,0.61274 0.40148,0.71018 0,1.32292 -0.47223,0.7207 -1.65968,0.90465 -2.22038,0.34396 z m -179.705,-18.33563 v -2.24896 h 33.20521 33.20521 v 2.24896 2.24896 H 105.47426 72.26905 Z m 90.04633,1.5811 c -7.73575,-2.08469 -12.24545,-7.58697 -12.25569,-14.95311 -0.007,-5.17176 2.1974,-9.312374 7.07287,-13.284123 5.51925,-4.496194 7.18793,-6.706444 7.81148,-10.346666 0.51313,-2.995665 -0.53369,-6.88648995 -2.74166,-10.190228 l -0.59544,-0.890942 0.90553,0.181006 c 6.67709,1.33468 14.01693,4.18323705 18.55651,7.201686 2.58773,1.720638 6.70745,5.878028 7.9525,8.025233 1.37937,2.378856 2.54213,5.491673 3.16263,8.466667 0.43091,2.066053 0.49888,3.149453 0.38174,6.085417 -0.0784,1.96453 -0.31507,4.1864 -0.52597,4.93748 -1.58665,5.65041 -6.18031,10.93134 -11.74527,13.50251 -1.08735,0.50238 -2.01747,0.87296 -2.06693,0.8235 -0.0495,-0.0495 0.31918,-0.9214 0.8192,-1.93765 2.63938,-5.36424 2.76465,-12.36026 0.29517,-16.48435 -0.86477,-1.44418 -2.00656,-2.495274 -3.20596,-2.951284 -0.80551,-0.30625 -0.80734,-0.28701 -0.15037,1.580634 1.01239,2.87804 0.52898,6.59135 -1.14357,8.7842 -1.22634,1.60784 -2.60012,2.31858 -4.49197,2.32394 -1.84027,0.005 -2.80239,-0.43388 -4.45092,-2.03133 l -1.22292,-1.18503 -0.2975,0.85341 c -0.94747,2.7179 -0.90671,7.72447 0.0858,10.53651 0.22474,0.63676 0.40861,1.20231 0.40861,1.25677 0,0.20025 -1.22762,0.0542 -2.55784,-0.30425 z m 41.71617,-2.11026 v -2.24896 h 33.20521 33.20521 v 2.24896 2.24895 h -33.20521 -33.20521 z"
       id="path2329" />
  </g>
</svg>
